<svg width="16" height="16" viewBox="0 0 16 16" fill="none" xmlns="http://www.w3.org/2000/svg">
<path fill-rule="evenodd" clip-rule="evenodd" d="M14 8C14 11.3137 11.3137 14 8 14C4.68629 14 2 11.3137 2 8C2 4.68629 4.68629 2 8 2C11.3137 2 14 4.68629 14 8ZM8.66667 12C8.66667 12.3682 8.36819 12.6667 8 12.6667C7.63181 12.6667 7.33333 12.3682 7.33333 12C7.33333 11.6318 7.63181 11.3333 8 11.3333C8.36819 11.3333 8.66667 11.6318 8.66667 12ZM8 3C6.34315 3 5 4.34315 5 6H7C7 5.44772 7.44772 5 8 5H8.06287C8.58043 5 9 5.41957 9 5.93713V6.27924C9 6.4783 8.87262 6.65503 8.68377 6.71798C7.67824 7.05316 7 7.99417 7 9.05409V10.6667H9V9.05409C9 8.85503 9.12738 8.6783 9.31623 8.61535C10.3218 8.28017 11 7.33917 11 6.27924V5.93713C11 4.315 9.685 3 8.06287 3H8Z" fill="#222222"/>
</svg>
