<svg width="11" height="13" viewBox="0 0 11 13" fill="none" xmlns="http://www.w3.org/2000/svg">
<path d="M1.83301 4.7778C1.83301 3.27628 1.83301 2.52552 2.23574 2.05905C2.63846 1.59259 3.28665 1.59259 4.58301 1.59259H6.41634C7.7127 1.59259 8.36089 1.59259 8.76361 2.05905C9.16634 2.52552 9.16634 3.27628 9.16634 4.7778V8.40237C9.16634 9.82684 9.16634 10.5391 8.77937 10.7569C8.39241 10.9748 7.90888 10.5347 6.94184 9.65466L6.63235 9.37301C6.08859 8.87816 5.81672 8.63073 5.49967 8.63073C5.18263 8.63073 4.91076 8.87816 4.367 9.37301L4.05751 9.65466C3.09047 10.5347 2.60694 10.9748 2.21998 10.7569C1.83301 10.5391 1.83301 9.82684 1.83301 8.40237V4.7778Z" fill="#222222" stroke="#222222" stroke-width="2"/>
</svg>
