<svg width="24" height="24" viewBox="0 0 24 24" fill="none" xmlns="http://www.w3.org/2000/svg">
<path d="M4 9.00024C4 6.17182 4 4.7576 4.87868 3.87892C5.75736 3.00024 7.17157 3.00024 10 3.00024H14C16.8284 3.00024 18.2426 3.00024 19.1213 3.87892C20 4.7576 20 6.17182 20 9.00024V15.8279C20 18.5111 20 19.8528 19.1557 20.2631C18.3114 20.6735 17.2565 19.8446 15.1465 18.1868L14.4713 17.6563C13.2849 16.7241 12.6917 16.258 12 16.258C11.3083 16.258 10.7151 16.7241 9.52871 17.6563L8.85346 18.1868C6.74355 19.8446 5.68859 20.6735 4.84429 20.2631C4 19.8528 4 18.5111 4 15.8279V9.00024Z" fill="#222222" stroke="#222222" stroke-width="2"/>
</svg>
