<svg width="17" height="16" viewBox="0 0 17 16" fill="none" xmlns="http://www.w3.org/2000/svg">
<path fill-rule="evenodd" clip-rule="evenodd" d="M7.36621 11.7857C9.95505 11.7857 12.0537 9.73366 12.0537 7.20235C12.0537 4.67105 9.95505 2.61902 7.36621 2.61902C4.77738 2.61902 2.67871 4.67105 2.67871 7.20235C2.67871 9.73366 4.77738 11.7857 7.36621 11.7857ZM7.36621 3.5833C6.88621 3.5833 6.41041 3.67572 5.96578 3.8558C5.52111 4.0359 5.11563 4.30044 4.77306 4.6354C4.43044 4.9704 4.15743 5.36934 3.97075 5.81002C3.78404 6.25075 3.68764 6.72393 3.68764 7.20235C3.68764 7.75464 4.13535 8.20235 4.68764 8.20235C5.23992 8.20235 5.68764 7.75464 5.68764 7.20235C5.68764 6.99289 5.7298 6.78494 5.81232 6.59016C5.89486 6.39532 6.01645 6.21681 6.17129 6.06541C6.32618 5.91397 6.51127 5.79268 6.71656 5.70953C6.92188 5.62638 7.1427 5.5833 7.36621 5.5833C7.9185 5.5833 8.36621 5.13559 8.36621 4.5833C8.36621 4.03102 7.9185 3.5833 7.36621 3.5833Z" fill="#222222"/>
<path d="M13.393 13.0952L12.0537 11.7857" stroke="#222222" stroke-width="2" stroke-linecap="round"/>
</svg>
