<svg width="28" height="28" viewBox="0 0 28 28" fill="none" xmlns="http://www.w3.org/2000/svg">
<path fill-rule="evenodd" clip-rule="evenodd" d="M12.8332 21C17.3435 21 20.9998 17.3437 20.9998 12.8334C20.9998 8.32303 17.3435 4.66669 12.8332 4.66669C8.32285 4.66669 4.6665 8.32303 4.6665 12.8334C4.6665 17.3437 8.32285 21 12.8332 21ZM12.8332 7.16669C12.089 7.16669 11.3521 7.31326 10.6646 7.59804C9.97712 7.88281 9.35243 8.30022 8.82623 8.82642C8.30003 9.35261 7.88263 9.9773 7.59785 10.6648C7.31308 11.3523 7.1665 12.0892 7.1665 12.8334C7.1665 13.3856 7.61422 13.8334 8.1665 13.8334C8.71879 13.8334 9.1665 13.3856 9.1665 12.8334C9.1665 12.3518 9.26134 11.875 9.44561 11.4302C9.62988 10.9853 9.89996 10.5811 10.2404 10.2406C10.5809 9.90015 10.9851 9.63006 11.43 9.4458C11.8749 9.26153 12.3517 9.16669 12.8332 9.16669C13.3855 9.16669 13.8332 8.71897 13.8332 8.16669C13.8332 7.6144 13.3855 7.16669 12.8332 7.16669Z" fill="#222222"/>
<path d="M23.3333 23.3333L21 21" stroke="#222222" stroke-width="2" stroke-linecap="round"/>
</svg>
