<svg width="16" height="16" viewBox="0 0 16 16" fill="none" xmlns="http://www.w3.org/2000/svg">
<path fill-rule="evenodd" clip-rule="evenodd" d="M9.42246 2.22808L9.42377 2.241L9.42612 2.26416C9.51144 3.04965 10.4311 3.4306 11.0469 2.9355L11.0649 2.92079L11.075 2.91259C11.471 2.59238 12.0445 2.62098 12.4067 2.97901L12.4159 2.98817L13.0115 3.58382L13.0207 3.59302C13.3787 3.95523 13.4073 4.52867 13.0871 4.92471L13.0789 4.93478L13.0642 4.95283C12.5691 5.56859 12.95 6.48826 13.7355 6.57359L13.7587 6.57594L13.7716 6.57725C14.2781 6.63089 14.6634 7.05658 14.6663 7.56586L14.6663 7.57887V8.42129L14.6663 8.43415C14.6634 8.94349 14.2781 9.36923 13.7716 9.42283L13.7588 9.42413L13.7359 9.42645C12.9503 9.51169 12.5693 10.4315 13.0645 11.0473L13.079 11.0651L13.0871 11.075C13.4074 11.4711 13.3788 12.0446 13.0206 12.4068L13.0116 12.4159L12.4159 13.0116L12.4067 13.0208C12.0445 13.3788 11.4711 13.4074 11.075 13.0872L11.065 13.079L11.0469 13.0643C10.4312 12.5692 9.51147 12.9501 9.42615 13.7356L9.42379 13.7589L9.42245 13.7721C9.36879 14.2785 8.94315 14.6637 8.43392 14.6667L8.42076 14.6667H7.5785L7.5655 14.6667C7.05621 14.6637 6.63052 14.2785 6.57689 13.772L6.57558 13.7591L6.57322 13.7359C6.48789 12.9504 5.56823 12.5695 4.95247 13.0645L4.93439 13.0793L4.92431 13.0875C4.52826 13.4077 3.95484 13.3791 3.59263 13.0211L3.58341 13.0119L2.98779 12.4163L2.97861 12.4071C2.62059 12.0449 2.59199 11.4714 2.91219 11.0754L2.92041 11.0653L2.93513 11.0473C3.43023 10.4315 3.04928 9.51181 2.26379 9.42649L2.24063 9.42414L2.22771 9.42283C1.72125 9.3692 1.33599 8.9435 1.33302 8.43421L1.33301 8.42123L1.33301 7.57894L1.33303 7.56581C1.33602 7.05657 1.72123 6.63091 2.22765 6.57726L2.24071 6.57594L2.26414 6.57356C3.04953 6.48816 3.43042 5.56862 2.93545 4.95288L2.92053 4.93459L2.91216 4.92433C2.59204 4.52831 2.62064 3.95498 2.97857 3.59278L2.9879 3.58343L3.58344 2.98789L3.59266 2.9787C3.95487 2.62068 4.52829 2.59208 4.92434 2.91228L4.93447 2.92055L4.95241 2.93518C5.56819 3.43039 6.48801 3.04939 6.57326 2.2638L6.57559 2.24091L6.57688 2.22815C6.63048 1.72162 7.05623 1.33632 7.56558 1.33339L7.5784 1.33337H8.42086L8.43384 1.33339C8.94313 1.33636 9.36884 1.72161 9.42246 2.22808ZM7.99967 10.6667C9.47243 10.6667 10.6663 9.4728 10.6663 8.00004C10.6663 6.52728 9.47243 5.33337 7.99967 5.33337C6.52692 5.33337 5.33301 6.52728 5.33301 8.00004C5.33301 9.4728 6.52692 10.6667 7.99967 10.6667Z" fill="#222222"/>
</svg>
