<svg width="16" height="16" viewBox="0 0 16 16" fill="none" xmlns="http://www.w3.org/2000/svg">
<path fill-rule="evenodd" clip-rule="evenodd" d="M13.3321 6.33337H2.66856C2.67273 6.01439 2.68795 5.80879 2.7436 5.61355C2.78569 5.4659 2.84464 5.32359 2.91928 5.18943C3.05516 4.94521 3.2591 4.74126 3.66699 4.33337C4.07488 3.92548 4.27883 3.72154 4.52305 3.58566C4.65721 3.51102 4.79952 3.45207 4.94717 3.40999C5.21594 3.33337 5.50436 3.33337 6.08121 3.33337H9.91945C10.4963 3.33337 10.7847 3.33337 11.0535 3.40999C11.2011 3.45207 11.3434 3.51102 11.4776 3.58566C11.7218 3.72154 11.9258 3.92548 12.3337 4.33337L12.3337 4.33338L12.3337 4.33338C12.7416 4.74127 12.9455 4.94521 13.0814 5.18943C13.156 5.32359 13.215 5.4659 13.257 5.61355C13.3127 5.80879 13.3279 6.01439 13.3321 6.33337ZM10.2224 8.33337H13.3337V9.33337C13.3337 11.219 13.3337 12.1618 12.7479 12.7476C12.1621 13.3334 11.2193 13.3334 9.33366 13.3334H6.66699C4.78137 13.3334 3.83857 13.3334 3.25278 12.7476C2.66699 12.1618 2.66699 11.219 2.66699 9.33337V8.33337H5.77799L5.77799 10.4445C5.77799 10.9544 5.77799 11.2093 5.84393 11.3463C5.99113 11.6522 6.34466 11.7986 6.66503 11.6864C6.80854 11.6362 6.98881 11.4559 7.34934 11.0954C7.51633 10.9284 7.59982 10.8449 7.68859 10.7979C7.88355 10.6949 8.11688 10.6949 8.31184 10.7979C8.40061 10.8449 8.48411 10.9284 8.65109 11.0954C9.01163 11.4559 9.19189 11.6362 9.33541 11.6864C9.65578 11.7986 10.0093 11.6522 10.1565 11.3463C10.2224 11.2093 10.2224 10.9544 10.2224 10.4445V8.33337Z" fill="#222222"/>
</svg>
