<svg width="28" height="45" viewBox="0 0 28 45" fill="none" xmlns="http://www.w3.org/2000/svg">
<path fill-rule="evenodd" clip-rule="evenodd" d="M23.5306 31.4694L18.8366 26.7762C21.6629 23.383 21.3204 18.3669 18.0591 15.3893C14.7978 12.4118 9.77134 12.526 6.64867 15.6487C3.526 18.7713 3.41176 23.7978 6.38935 27.0591C9.36693 30.3204 14.383 30.6629 17.7762 27.8366L22.4694 32.5306C22.7624 32.8237 23.2376 32.8237 23.5306 32.5306C23.8237 32.2376 23.8237 31.7624 23.5306 31.4694ZM5.75 21.5C5.75 17.7721 8.77208 14.75 12.5 14.75C16.2279 14.75 19.25 17.7721 19.25 21.5C19.25 25.2279 16.2279 28.25 12.5 28.25C8.77379 28.2459 5.75413 25.2262 5.75 21.5Z" fill="#4F7396"/>
</svg>
